HIERARCHY
ROOT SpineBase
{
  OFFSET 0.000000 0.000000 0.000000
  CHANNELS 6 Xposition Yposition Zposition Zrotation Xrotation Yrotation
  JOINT SpineMid
  {
    OFFSET 0.000000 18.830555 0.000000
    CHANNELS 3 Zrotation Xrotation Yrotation
    JOINT SpineShoulder
    {
      OFFSET -0.029894 13.281792 -0.701800
      CHANNELS 3 Zrotation Xrotation Yrotation
      JOINT Neck
      {
        OFFSET -0.031437 4.171865 -0.476055
        CHANNELS 3 Zrotation Xrotation Yrotation
        JOINT Head
        {
          OFFSET -0.782849 8.093808 -5.538035
          CHANNELS 3 Zrotation Xrotation Yrotation
          End Site
          {
            OFFSET 0 0 0
          }
        }
      }
      JOINT ShoulderLeft
      {
        OFFSET -8.876815 9.489291 2.972714
        CHANNELS 3 Zrotation Xrotation Yrotation
        JOINT ElbowLeft
        {
          OFFSET -6.713816 -24.912358 -8.435975
          CHANNELS 3 Zrotation Xrotation Yrotation
          JOINT WristLeft
          {
            OFFSET 1.648507 -25.899745 -5.774833
            CHANNELS 3 Zrotation Xrotation Yrotation
            JOINT HandLeft
            {
              OFFSET 1.424239 -8.799518 -2.826534
              CHANNELS 3 Zrotation Xrotation Yrotation
              JOINT HandTipLeft
              {
                OFFSET 0.575176 -4.638300 2.159211
                CHANNELS 3 Zrotation Xrotation Yrotation
                End Site
                {
                  OFFSET 0 0 0
                }
              }
              JOINT ThumbLeft
              {
                OFFSET 2.329630 -0.322402 -1.708067
                CHANNELS 3 Zrotation Xrotation Yrotation
                End Site
                {
                  OFFSET 0 0 0
                }
              }
            }
          }
        }
      }
      JOINT ShoulderRight
      {
        OFFSET 8.209315 -3.141602 -6.261487
        CHANNELS 3 Zrotation Xrotation Yrotation
        JOINT ElbowRight
        {
          OFFSET -0.045765 -7.205875 -24.177648
          CHANNELS 3 Zrotation Xrotation Yrotation
          JOINT WristRight
          {
            OFFSET -10.562416 15.291011 1.131238
            CHANNELS 3 Zrotation Xrotation Yrotation
            JOINT HandRight
            {
              OFFSET -0.850960 3.592961 2.773455
              CHANNELS 3 Zrotation Xrotation Yrotation
              JOINT HandTipRight
              {
                OFFSET -0.836446 1.616232 1.941963
                CHANNELS 3 Zrotation Xrotation Yrotation
                End Site
                {
                  OFFSET 0 0 0
                }
              }
              JOINT ThumbRight
              {
                OFFSET -0.705177 -0.453639 -2.605713
                CHANNELS 3 Zrotation Xrotation Yrotation
                End Site
                {
                  OFFSET 0 0 0
                }
              }
            }
          }
        }
      }
    }
  }
  JOINT HipLeft
  {
    OFFSET -8.767118 -0.896686 6.072874
    CHANNELS 3 Zrotation Xrotation Yrotation
    JOINT KneeLeft
    {
      OFFSET -21.609332 3.536045 -27.964094
      CHANNELS 3 Zrotation Xrotation Yrotation
      JOINT AnkleLeft
      {
        OFFSET 18.911211 -18.490949 41.909898
        CHANNELS 3 Zrotation Xrotation Yrotation
        JOINT FootLeft
        {
          OFFSET -7.304954 6.384061 7.478103
          CHANNELS 3 Zrotation Xrotation Yrotation
          End Site
          {
            OFFSET 0 0 0
          }
        }
      }
    }
  }
  JOINT HipRight
  {
    OFFSET 6.978385 -3.207869 -12.379626
    CHANNELS 3 Zrotation Xrotation Yrotation
    JOINT KneeRight
    {
      OFFSET -11.497006 -11.113531 -32.463661
      CHANNELS 3 Zrotation Xrotation Yrotation
      JOINT AnkleRight
      {
        OFFSET 2.885374 -20.272230 24.282932
        CHANNELS 3 Zrotation Xrotation Yrotation
        JOINT FootRight
        {
          OFFSET 5.322377 -3.611076 -0.696720
          CHANNELS 3 Zrotation Xrotation Yrotation
          End Site
          {
            OFFSET 0 0 0
          }
        }
      }
    }
  }
}
MOTION
Frames: 16
Frame Time: 0.033333
72.592636 39.442744 283.435418 -2.689943 -2.310132 19.612576 1.860674 1.242367 -19.744483 1.354087 0.516439 0.066626 2.545942 3.188529 2.013725 0.000000 0.000000 0.000000 0.063157 -1.502162 0.386063 -2.200033 3.142586 0.285502 -5.079869 1.285866 2.225833 10.074152 2.522918 -0.554728 0.000000 0.000000 0.000000 0.000000 0.000000 0.000000 -1.073787 7.476151 2.972869 3.088793 -7.475814 -2.610468 -4.471260 -2.684460 1.057236 0.526930 23.783643 10.322123 0.000000 0.000000 0.000000 0.000000 0.000000 0.000000 5.467953 -0.895914 -8.572133 -1.034847 0.877786 -8.299589 -72.791778 6.534165 152.603521 0.000000 0.000000 0.000000 7.110659 -0.709405 -32.142674 -1.675062 8.171064 19.069976 169.382277 -51.296286 30.402711 0.000000 0.000000 0.000000
72.411877 39.557622 283.374469 -3.083920 -2.208646 24.725092 2.040879 0.952835 -24.870433 0.784296 0.158848 -0.013866 3.472933 2.195711 2.036265 0.000000 0.000000 0.000000 0.843958 0.332753 0.096390 -1.815117 0.799875 0.468073 -4.988702 0.595585 1.967418 11.954237 0.924727 0.441077 0.000000 0.000000 0.000000 0.000000 0.000000 0.000000 -0.266786 7.899262 3.135361 2.668659 -6.990488 -2.312125 -2.078835 1.595935 0.306555 0.760272 21.078694 8.718490 0.000000 0.000000 0.000000 0.000000 0.000000 0.000000 5.675412 -1.831641 -14.193509 -0.962181 0.920034 -7.560367 -72.619086 6.113388 152.402268 0.000000 0.000000 0.000000 7.174335 -1.696388 -36.748233 -1.655316 7.925819 18.282345 159.968828 -42.501173 19.267356 0.000000 0.000000 0.000000
72.287907 39.633137 283.296789 -3.309031 -2.065655 26.399257 2.009896 0.812058 -26.552072 0.913690 0.139513 -0.013989 3.579304 0.918276 1.937942 0.000000 0.000000 0.000000 0.955579 0.308059 0.108823 -1.589608 -0.209960 0.338615 -4.868480 0.134358 1.753991 16.406909 0.959101 2.631682 0.000000 0.000000 0.000000 0.000000 0.000000 0.000000 -0.178332 7.929797 3.203614 3.038675 -6.785797 -2.157407 -1.370149 1.064720 -0.725835 2.509712 22.932212 6.656536 0.000000 0.000000 0.000000 0.000000 0.000000 0.000000 5.753259 -2.220259 -15.874807 -0.885687 1.104136 -7.251293 -72.351994 5.747169 151.888973 0.000000 0.000000 0.000000 7.142663 -2.830543 -38.508304 -2.348073 7.850186 17.726030 158.911303 -45.977669 19.517461 0.000000 0.000000 0.000000
72.269036 39.590406 283.201367 -3.243989 -1.846461 27.504151 1.771282 0.729070 -27.653160 0.985670 0.139954 -0.013664 3.584527 -1.114143 1.737922 0.000000 0.000000 0.000000 1.318967 1.214277 -0.248202 -1.915179 -1.811841 0.629903 -4.936531 0.212402 1.766219 16.476766 0.274408 2.483662 0.000000 0.000000 0.000000 0.000000 0.000000 0.000000 -0.178721 7.913438 3.394672 3.632070 -6.558956 -2.096402 -0.764018 -4.105579 -2.921974 3.006092 29.733672 6.240848 0.000000 0.000000 0.000000 0.000000 0.000000 0.000000 5.444661 -2.116432 -16.983075 -0.754183 1.255604 -7.115487 -71.947328 5.266832 151.215398 0.000000 0.000000 0.000000 6.799428 -3.451750 -39.416637 -2.434957 9.417255 18.124634 155.700922 -38.894704 15.912759 0.000000 0.000000 0.000000
72.332248 39.525498 283.083263 -2.992187 -1.558652 27.850320 1.431220 0.676341 -27.987904 0.986812 0.156349 -0.014008 3.521563 -2.513502 1.571944 0.000000 0.000000 0.000000 1.481518 1.317807 -0.346437 -2.170191 -2.137292 0.739030 -5.245460 0.698837 1.985964 16.169125 -0.675834 2.013581 0.000000 0.000000 0.000000 0.000000 0.000000 0.000000 -0.151536 7.731343 3.415506 4.264309 -8.176498 -3.168972 4.970703 -14.466036 -9.226830 -8.440809 43.018811 14.710248 0.000000 0.000000 0.000000 0.000000 0.000000 0.000000 4.920362 -1.676365 -17.244061 -0.482003 1.369595 -6.910159 -71.595757 5.064871 150.346043 0.000000 0.000000 0.000000 6.319621 -3.736215 -39.490176 -2.437885 9.632439 17.837979 151.290015 -29.099679 9.887146 0.000000 0.000000 0.000000
72.306754 39.504429 282.975348 -2.993441 -1.332161 27.576931 1.295752 0.609010 -27.711744 1.019737 0.156043 -0.014022 4.118625 -2.887687 1.937484 0.000000 0.000000 0.000000 1.418274 0.945974 -0.225691 -2.091578 -1.547136 0.667713 -5.169591 0.739122 1.986929 13.037735 0.014818 0.656263 0.000000 0.000000 0.000000 0.000000 0.000000 0.000000 -0.065033 7.466558 3.333015 7.186692 -8.771144 -3.291825 2.808862 -20.767952 -10.782412 -11.919492 52.588041 17.717002 0.000000 0.000000 0.000000 0.000000 0.000000 0.000000 4.782707 -1.655975 -16.856025 -0.343430 1.564954 -6.678027 -71.348402 4.874874 149.663322 0.000000 0.000000 0.000000 6.232049 -3.957114 -39.226156 -2.586181 9.673162 17.744786 152.640733 -34.521456 12.621486 0.000000 0.000000 0.000000
72.284554 39.493303 282.892030 -3.011997 -1.167753 26.428721 1.215680 0.582661 -26.561695 1.037108 0.167007 -0.013999 4.030219 -3.078366 1.850971 0.000000 0.000000 0.000000 1.487708 0.626419 -0.171006 -1.333826 -1.112108 0.477940 -4.962998 1.030936 1.902898 9.791642 -0.064426 -0.066626 0.000000 0.000000 0.000000 0.000000 0.000000 0.000000 0.073457 7.043294 3.079010 10.164510 -8.385454 -2.791321 -1.511767 -24.337662 -10.640608 -9.138993 60.345984 15.580060 0.000000 0.000000 0.000000 0.000000 0.000000 0.000000 4.575149 -0.967836 -15.360845 0.182252 0.866195 -6.701452 -71.301783 4.774329 149.402374 0.000000 0.000000 0.000000 6.323025 -3.943019 -38.258260 -2.863103 8.909757 17.384908 159.877919 -51.290874 23.442838 0.000000 0.000000 0.000000
72.392758 39.503190 282.875123 -2.695183 -1.167308 23.794227 0.952257 0.789181 -23.921204 0.979157 0.210262 -0.016681 3.222270 -3.404319 1.260857 0.000000 0.000000 0.000000 1.163132 -0.144672 0.133079 -1.052177 -0.045363 0.231461 -5.229924 0.722337 1.951751 11.548098 -0.743090 0.473477 0.000000 0.000000 0.000000 0.000000 0.000000 0.000000 0.173535 6.807110 2.857066 12.525821 -9.777887 -3.273191 -2.837701 -24.448768 -10.274346 -10.504753 64.549922 16.380058 0.000000 0.000000 0.000000 0.000000 0.000000 0.000000 4.395828 -0.444755 -11.542600 0.128685 1.705229 -7.356835 -71.119577 5.157143 148.352364 0.000000 0.000000 0.000000 6.245048 -3.228013 -35.603170 -2.720201 8.772012 17.385963 -142.678591 -71.765984 88.735695 0.000000 0.000000 0.000000
72.610368 39.545244 282.942768 -2.129061 -1.376189 20.753184 0.587199 1.141666 -20.867738 0.838151 0.298319 -0.021997 2.577994 -3.254856 0.838808 0.000000 0.000000 0.000000 1.146336 -0.193644 0.131256 -1.846430 0.311201 0.436736 -5.328402 0.584143 2.056206 12.356043 -0.483076 0.202288 0.000000 0.000000 0.000000 0.000000 0.000000 0.000000 0.235570 6.690201 2.636415 13.557623 -10.212370 -3.273666 -3.082607 -26.417285 -10.914780 -18.884354 63.503706 24.620782 0.000000 0.000000 0.000000 0.000000 0.000000 0.000000 4.262411 -0.122096 -7.078157 -0.087550 2.515245 -8.296001 -71.390011 6.250231 148.015275 0.000000 0.000000 0.000000 5.939298 -2.227462 -32.467044 -2.640225 7.766180 16.766584 -87.055721 -63.215611 152.542150 0.000000 0.000000 0.000000
72.754687 39.569797 282.988043 -1.763015 -1.526684 18.817112 0.350621 1.367759 -18.920880 0.729850 0.355677 -0.026595 2.054651 -2.654701 0.533614 0.000000 0.000000 0.000000 1.142413 -0.232888 0.130893 -1.745093 0.377683 0.419019 -5.019045 0.572801 1.944278 10.125952 -0.076818 -0.515376 0.000000 0.000000 0.000000 0.000000 0.000000 0.000000 0.273021 6.710313 2.514581 13.291691 -9.398919 -2.714342 -2.093016 -29.051196 -12.627162 -24.755888 61.392191 29.942657 0.000000 0.000000 0.000000 0.000000 0.000000 0.000000 4.372533 -0.464836 -4.788894 -0.546382 2.979919 -8.816021 -71.684722 6.772296 148.505374 0.000000 0.000000 0.000000 5.737511 -1.585215 -30.591603 -3.037966 4.879339 15.083023 -64.373330 -51.929006 -171.525224 0.000000 0.000000 0.000000
72.904333 39.606452 283.071953 -1.417814 -1.756862 18.037887 0.198078 1.583817 -18.129646 0.609052 0.427752 -0.030506 1.405847 -2.029307 0.158279 0.000000 0.000000 0.000000 1.110679 -0.234792 0.127212 -1.348681 0.626406 0.347807 -4.925567 0.304236 1.826360 10.028550 0.453932 -0.136112 0.000000 0.000000 0.000000 0.000000 0.000000 0.000000 0.258279 6.859577 2.454597 11.627970 -7.677547 -1.745937 -0.641141 -27.411780 -13.210910 -22.661423 53.672092 28.155403 0.000000 0.000000 0.000000 0.000000 0.000000 0.000000 4.183466 -0.254572 -4.215121 -0.836671 2.927389 -9.253017 -71.872753 6.987388 149.215730 0.000000 0.000000 0.000000 5.490288 -1.032720 -29.769016 -3.084630 2.848483 14.062572 -55.133434 -39.008975 -142.429996 0.000000 0.000000 0.000000
73.059510 39.660297 283.160424 -1.084888 -1.971878 17.827909 0.084535 1.737459 -17.906018 0.472040 0.501427 -0.034550 0.952127 -1.237109 -0.056270 0.000000 0.000000 0.000000 1.063976 -0.206572 0.121742 -0.930537 0.561129 0.247615 -5.017783 0.334611 1.816060 8.262299 0.108464 -0.756233 0.000000 0.000000 0.000000 0.000000 0.000000 0.000000 0.206602 6.964822 2.460588 9.866139 -6.796941 -1.321588 1.419840 -27.996159 -14.198333 -24.723840 47.468857 30.305740 0.000000 0.000000 0.000000 0.000000 0.000000 0.000000 4.118467 -0.217198 -3.709384 -1.093969 3.314410 -9.667846 -72.081269 7.548731 149.438763 0.000000 0.000000 0.000000 5.126784 -0.536033 -29.161267 -3.259940 3.327716 13.424037 -46.786513 -34.135341 -111.000313 0.000000 0.000000 0.000000
73.087878 39.729429 283.236283 -1.082976 -2.155397 18.451936 0.206210 1.780822 -18.529571 0.390662 0.552166 -0.038506 1.059901 -0.148550 0.121178 0.000000 0.000000 0.000000 1.059901 -0.148550 0.121178 -0.775954 0.287327 0.193225 -5.035143 0.304521 1.785922 9.300784 1.043946 -0.090356 0.000000 0.000000 0.000000 0.000000 0.000000 0.000000 0.156102 7.104600 2.586486 8.172896 -6.552138 -1.338335 3.320923 -28.203048 -14.667574 -25.936616 41.696943 31.775076 0.000000 0.000000 0.000000 0.000000 0.000000 0.000000 4.229048 -0.035344 -3.740217 -1.041518 3.327631 -10.069871 -72.282937 8.138956 149.429163 0.000000 0.000000 0.000000 5.167691 -0.357161 -29.754270 -3.149781 0.458462 12.361315 -51.805713 -24.008735 -104.938677 0.000000 0.000000 0.000000
73.119438 39.724708 283.281159 -1.065964 -2.229985 19.484282 0.294485 1.737532 -19.560844 0.328661 0.609890 -0.040165 1.038696 -0.113579 0.118682 0.000000 0.000000 0.000000 1.038696 -0.113579 0.118682 -0.000000 0.000000 0.000000 -4.865047 0.363139 1.647403 5.263480 1.605123 -1.185043 0.000000 0.000000 0.000000 0.000000 0.000000 0.000000 0.053008 7.218944 2.810353 6.237072 -6.704341 -1.707593 5.365340 -28.367528 -14.888286 -26.736917 37.090243 32.921789 0.000000 0.000000 0.000000 0.000000 0.000000 0.000000 4.141162 -0.253087 -6.220136 -1.343425 2.906854 -9.672957 -72.316561 7.537880 150.459847 0.000000 0.000000 0.000000 5.040062 -0.094823 -30.287283 -2.624951 -1.727915 11.424857 -50.945500 -21.001743 -95.869489 0.000000 0.000000 0.000000
73.080372 39.743474 283.285724 -1.212539 -2.190869 19.237975 0.402106 1.590508 -19.319627 0.316681 0.649669 -0.040646 1.039662 -0.090394 0.118760 0.000000 0.000000 0.000000 1.508944 0.831993 -0.291497 -0.464643 -0.924735 0.403471 -4.019524 -0.047925 1.289665 1.450494 2.263357 -2.192122 0.000000 0.000000 0.000000 0.000000 0.000000 0.000000 0.025566 7.261830 2.889137 5.209838 -7.054290 -2.061804 6.615363 -30.909532 -15.744639 -29.495782 35.321819 36.314665 0.000000 0.000000 0.000000 0.000000 0.000000 0.000000 4.099510 -0.269868 -7.037182 -1.264564 2.436439 -8.952792 -72.364852 7.293951 150.899738 0.000000 0.000000 0.000000 5.171070 0.019320 -30.010075 -2.416392 -3.889886 10.838100 -41.015230 -21.759965 -77.015839 0.000000 0.000000 0.000000
73.062079 39.744848 283.319234 -1.298397 -2.225670 21.936423 0.562373 1.483538 -22.022070 0.295012 0.690051 -0.041421 1.687251 1.718481 0.734211 0.000000 0.000000 0.000000 1.307583 1.621121 -0.426316 0.858223 -2.788130 0.261468 -3.690822 0.599202 1.119554 -3.766861 2.378491 -3.386597 0.000000 0.000000 0.000000 0.000000 0.000000 0.000000 0.020788 7.254388 2.893772 5.408588 -7.729244 -2.514341 7.166439 -26.119299 -14.441391 -27.353321 29.504769 33.604620 0.000000 0.000000 0.000000 0.000000 0.000000 0.000000 3.721258 0.066564 -11.651525 -0.969361 1.397513 -7.831923 -72.401969 6.808924 151.728672 0.000000 0.000000 0.000000 5.174235 -0.308322 -32.463236 -2.341443 -5.157579 10.217920 -29.277302 -17.406248 -50.009436 0.000000 0.000000 0.000000
